<?xml version="1.0" encoding="UTF-8"?>
<svg id="Layer_1" data-name="Layer 1" xmlns="http://www.w3.org/2000/svg" viewBox="0 0 403.67 65.64">
  <defs>
    <style>
      .cls-1 {
        fill: none;
      }
    </style>
  </defs>
  <path d="m343.61,21.89h0c-1.57-3.74-3.78-7.03-6.57-9.77-2.81-2.77-6.13-5-9.86-6.63-3.68-1.6-7.7-2.42-11.95-2.42s-8.27.81-11.95,2.42c-3.73,1.63-7.05,3.86-9.86,6.63-2.78,2.75-4.99,6.03-6.57,9.77-1.57,3.73-2.37,7.79-2.37,12.07s.8,8.34,2.37,12.07c1.58,3.74,3.79,7.03,6.57,9.77,2.81,2.77,6.13,5,9.86,6.63,3.68,1.6,7.7,2.42,11.95,2.42s8.27-.81,11.95-2.42c3.73-1.62,7.05-3.86,9.86-6.63,2.78-2.74,4.99-6.03,6.57-9.77,1.57-3.73,2.37-7.79,2.37-12.07s-.8-8.33-2.37-12.06Zm-9.24,20.36c-1.08,2.54-2.56,4.79-4.41,6.69-1.85,1.91-4.05,3.45-6.54,4.58-2.55,1.17-5.31,1.76-8.19,1.76s-5.76-.6-8.28-1.77c-2.44-1.14-4.61-2.68-6.45-4.57-1.86-1.91-3.33-4.18-4.37-6.75-1.03-2.55-1.56-5.32-1.56-8.23s.52-5.67,1.56-8.23c1.03-2.56,2.5-4.83,4.37-6.75,1.84-1.9,4.01-3.43,6.44-4.57,2.53-1.18,5.31-1.77,8.29-1.77s5.64.59,8.19,1.76c2.48,1.13,4.68,2.67,6.54,4.58,1.85,1.91,3.34,4.16,4.41,6.69,1.1,2.58,1.65,5.37,1.65,8.29s-.56,5.72-1.65,8.3Z"/>
  <path d="m401.5,45.72c1.55-3.64,2.33-7.6,2.33-11.77s-.82-8.31-2.43-12.01c-1.64-3.75-3.87-7.08-6.66-9.9-2.75-2.79-6.06-5.01-9.81-6.6-3.75-1.58-7.83-2.38-12.12-2.38s-8.37.8-12.12,2.38c-3.76,1.58-7.06,3.8-9.82,6.6-2.79,2.83-5.03,6.16-6.66,9.9-1.61,3.7-2.43,7.74-2.43,12.01s.82,8.31,2.43,12.01c.47,1.09,1.05,2.2,1.81,3.52,1.4,2.4,3.03,4.54,4.84,6.38,2.76,2.8,6.06,5.02,9.82,6.6,3.75,1.58,7.82,2.38,12.12,2.38h30.86v-13.66h-4.5l2.32-5.46Zm-9.46-3.58c-1.04,2.57-2.52,4.85-4.39,6.78-1.84,1.9-4.01,3.44-6.46,4.58-2.53,1.18-5.33,1.78-8.31,1.78s-5.65-.59-8.22-1.76c-1.53-.7-3-1.59-4.37-2.66-.87-.68-1.57-1.3-2.19-1.94-1.86-1.91-3.34-4.17-4.43-6.71-1.1-2.58-1.66-5.38-1.66-8.32s.56-5.73,1.66-8.32c1.09-2.54,2.57-4.8,4.42-6.71,1.87-1.92,4.08-3.47,6.56-4.6,2.57-1.17,5.33-1.77,8.22-1.77s5.78.6,8.31,1.78c2.44,1.14,4.61,2.68,6.46,4.59,1.03,1.06,1.96,2.27,2.78,3.61.64,1.05,1.17,2.09,1.6,3.16,1.04,2.57,1.56,5.35,1.56,8.26s-.53,5.7-1.56,8.26Z"/>
  <polygon points="276.79 42.25 276.79 42.25 276.79 42.25 276.79 42.25"/>
  <polygon class="cls-1" points="203.34 43.66 221.24 43.66 207.41 17.72 203.34 43.66"/>
  <polygon class="cls-1" points="116.69 43.66 134.59 43.66 120.76 17.72 116.69 43.66"/>
  <path class="cls-1" d="m166.79,13.02h-7.74v22.97h7.74c2.49,0,4.62-.32,6.32-.95,1.72-.63,3.13-1.51,4.2-2.6,1.07-1.1,1.83-2.4,2.26-3.87.42-1.44.63-2.98.63-4.59,0-3.33-1.08-6.01-3.21-7.99-2.12-1.97-5.55-2.97-10.19-2.97Z"/>
  <polygon points="25.61 24.08 12.78 2.68 .35 2.68 19.05 33.65 0 65.32 12.43 65.32 25.62 43.32 38.89 65.32 48.62 65.32 48.62 60.85 32.18 33.65 48.62 6.56 48.62 2.68 38.54 2.68 25.61 24.08"/>
  <path d="m60.74,2.68h-11.12v62.64h11.12v-18.16c-.03-.07-.06-.13-.08-.2-1.58-4.02-2.39-8.38-2.39-12.95s.84-9.11,2.47-13.07V2.68Z"/>
  <path d="m107.55,6.06c-2.37-1.34-4.94-2.39-7.64-3.13-2.71-.74-5.55-1.12-8.46-1.12-4.5,0-8.77.81-12.67,2.4-3.9,1.59-7.34,3.85-10.21,6.69-2.88,2.85-5.17,6.27-6.82,10.17,0,.01-.01.03-.02.04-.18.42-.34.85-.5,1.28-.18.49-.35.98-.5,1.48-.98,3.15-1.47,6.54-1.47,10.13s.5,6.93,1.47,10.13c.15.51.32,1.01.5,1.51.11.32.22.63.35.94.05.12.1.24.15.37,1.53,3.75,3.67,7.06,6.36,9.84,2.79,2.88,6.2,5.18,10.12,6.86,3.93,1.68,8.38,2.53,13.23,2.53,3.07,0,6.06-.43,8.88-1.29.26-.08.51-.18.77-.26l2.28-13.67c-.27.22-.54.44-.83.65-3.1,2.29-6.92,3.45-11.37,3.45-2.96,0-5.76-.56-8.3-1.65-2.55-1.09-4.79-2.61-6.65-4.51-1.87-1.9-3.34-4.15-4.38-6.7-1.04-2.54-1.56-5.31-1.56-8.21s.54-5.77,1.61-8.34c1.07-2.58,2.55-4.84,4.42-6.74,1.87-1.9,4.12-3.41,6.7-4.51,2.58-1.1,5.42-1.65,8.43-1.65,4.15,0,7.72.98,10.61,2.92,2.41,1.61,4.47,3.76,6.16,6.4l2.35-14.04c-.96-.71-1.96-1.37-3.01-1.97Z"/>
  <path d="m181.02,42.54c3.33-1.8,5.9-4.36,7.64-7.6,1.75-3.25,2.64-6.77,2.64-10.44,0-3.23-.53-6.24-1.58-8.93-1.04-2.68-2.57-4.99-4.54-6.88-1.98-1.89-4.44-3.38-7.32-4.42-2.9-1.05-6.27-1.58-10.03-1.58h-19.9v62.64h11.12v-19.18h11.44l9.85,19.18h7.29l1.24-7.44-8.3-15.1.44-.24Zm-1.46-13.98c-.43,1.47-1.19,2.77-2.26,3.87-1.07,1.1-2.48,1.97-4.2,2.6-1.7.63-3.83.95-6.32.95h-7.74V13.02h7.74c4.64,0,8.07,1,10.19,2.97,2.13,1.98,3.21,4.67,3.21,7.99,0,1.61-.21,3.15-.63,4.59Z"/>
  <path d="m242.41,61.31c-.16-.09-.3-.17-.46-.26-2.42-1.41-4.59-3.06-6.45-4.9-2.83-2.79-5.08-6.13-6.68-9.93-1.6-3.79-2.41-7.91-2.41-12.26v-2.15l-15.8-29.12h-11.48l-9.2,55.02-.13.8-.13.8-1.01,6.02h11.36l1.74-11.07h25.14l5.93,11.07h11.76l-2.18-4.01Zm-39.06-17.65l4.07-25.94,13.82,25.94h-17.89Z"/>
  <path d="m123.95,2.68h-11.48l-.82,4.9-.09.57-.09.57-2.4,14.35-.11.66-.11.66-3.99,23.85-.14.86-.14.83-2.39,14.33-.09.56-.08.48h11.36l1.26-8.03.14-.86.14-.87.21-1.31h25.14l5.93,11.07h.77v-20.27L123.95,2.68Zm-7.26,40.97l4.07-25.94,13.82,25.94h-17.89Z"/>
  <path d="m236.19,55.44c1.8,1.78,3.91,3.38,6.26,4.75,1.29.75,2.39,1.32,3.45,1.78,3.62,1.58,7.57,2.38,11.75,2.38s8.13-.8,11.75-2.38c3.67-1.6,6.94-3.79,9.71-6.53,2.73-2.7,4.91-5.93,6.46-9.61,1.55-3.67,2.33-7.67,2.33-11.87s-.78-8.19-2.33-11.87c-1.55-3.68-3.72-6.91-6.46-9.61-2.77-2.72-6.03-4.92-9.71-6.52-3.62-1.58-7.57-2.37-11.75-2.37s-7.96.77-11.52,2.28l-6.15,2.62V2.68h-12.57v31.27c0,4.21.78,8.2,2.33,11.87,1.55,3.68,3.72,6.91,6.46,9.61Zm2.36-29.71c.43-1.06.95-2.09,1.6-3.15.82-1.34,1.75-2.55,2.77-3.6,1.84-1.9,4.01-3.44,6.44-4.57,2.52-1.18,5.31-1.77,8.28-1.77s5.63.59,8.19,1.76c2.48,1.13,4.68,2.68,6.54,4.58,1.85,1.91,3.34,4.16,4.41,6.69,1.1,2.58,1.65,5.37,1.65,8.29s-.56,5.71-1.65,8.29h0c-1.08,2.54-2.56,4.79-4.41,6.69-.62.64-1.32,1.25-2.18,1.93-1.37,1.07-2.83,1.96-4.36,2.66-2.56,1.17-5.31,1.76-8.19,1.76s-5.76-.6-8.28-1.77c-2.43-1.14-4.6-2.67-6.44-4.57-1.87-1.92-3.34-4.19-4.37-6.75-1.03-2.55-1.56-5.32-1.56-8.23s.52-5.67,1.56-8.23Z"/>
</svg>